<svg width="48" height="48" viewBox="0 0 48 48" fill="none" xmlns="http://www.w3.org/2000/svg">
<path opacity="0.4" d="M32.38 4H15.62C8.34 4 4 8.34 4 15.62V32.36C4 39.66 8.34 44 15.62 44H32.36C39.64 44 43.98 39.66 43.98 32.38V15.62C44 8.34 39.66 4 32.38 4Z" fill="#FFBB53"/>
<path d="M32 22.5H25.5V16C25.5 15.18 24.82 14.5 24 14.5C23.18 14.5 22.5 15.18 22.5 16V22.5H16C15.18 22.5 14.5 23.18 14.5 24C14.5 24.82 15.18 25.5 16 25.5H22.5V32C22.5 32.82 23.18 33.5 24 33.5C24.82 33.5 25.5 32.82 25.5 32V25.5H32C32.82 25.5 33.5 24.82 33.5 24C33.5 23.18 32.82 22.5 32 22.5Z" fill="#FFBB53"/>
</svg>
