<svg width="24" height="24" viewBox="0 0 24 24" fill="none" xmlns="http://www.w3.org/2000/svg">
<path opacity="0.4" d="M15.48 3H7.52C4.07 3 2 5.06 2 8.52V16.47C2 19.94 4.07 22 7.52 22H15.47C18.93 22 20.99 19.94 20.99 16.48V8.52C21 5.06 18.93 3 15.48 3Z" fill="#FFBB53"/>
<path d="M21.02 2.97997C19.23 1.17997 17.48 1.13997 15.64 2.97997L14.51 4.09997C14.41 4.19997 14.38 4.33997 14.42 4.46997C15.12 6.91997 17.08 8.87997 19.53 9.57997C19.56 9.58997 19.61 9.58997 19.64 9.58997C19.74 9.58997 19.84 9.54997 19.91 9.47997L21.02 8.35997C21.93 7.44997 22.38 6.57997 22.38 5.68997C22.38 4.78997 21.93 3.89997 21.02 2.97997Z" fill="#FFBB53"/>
<path d="M17.86 10.42C17.59 10.29 17.33 10.16 17.09 10.01C16.89 9.89003 16.69 9.76003 16.5 9.62003C16.34 9.52003 16.16 9.37003 15.98 9.22003C15.96 9.21003 15.9 9.16003 15.82 9.08003C15.51 8.83003 15.18 8.49003 14.87 8.12003C14.85 8.10003 14.79 8.04003 14.74 7.95003C14.64 7.84003 14.49 7.65003 14.36 7.44003C14.25 7.30003 14.12 7.10003 14 6.89003C13.85 6.64003 13.72 6.39003 13.6 6.13003C13.47 5.85003 13.37 5.59003 13.28 5.34003L7.90001 10.72C7.55001 11.07 7.21001 11.73 7.14001 12.22L6.71001 15.2C6.62001 15.83 6.79001 16.42 7.18001 16.81C7.51001 17.14 7.96001 17.31 8.46001 17.31C8.57001 17.31 8.68001 17.3 8.79001 17.29L11.76 16.87C12.25 16.8 12.91 16.47 13.26 16.11L18.64 10.73C18.39 10.65 18.14 10.54 17.86 10.42Z" fill="#FFBB53"/>
</svg>
