<svg width="24" height="24" viewBox="0 0 24 24" fill="none" xmlns="http://www.w3.org/2000/svg">
<path d="M9 19.0001C9 19.8401 9.13 20.6601 9.37 21.4201C5.53 20.0901 2.63 16.5601 2.33 12.4301C2.03 8.04012 4.56 3.94012 8.65 2.22012C9.71 1.78012 10.25 2.10012 10.48 2.33012C10.7 2.55012 11.01 3.08012 10.57 4.09012C10.12 5.13012 9.9 6.23012 9.9 7.37012C9.91 9.41012 10.71 11.3001 12.01 12.7501C10.18 14.2101 9 16.4701 9 19.0001Z" fill="#FFBB53"/>
<path opacity="0.4" d="M21.21 17.72C19.23 20.41 16.09 21.99 12.74 21.99C12.58 21.99 12.42 21.98 12.26 21.97C11.26 21.93 10.29 21.74 9.37 21.42C9.13 20.66 9 19.84 9 19C9 16.47 10.18 14.21 12.01 12.75C13.48 14.4 15.59 15.47 17.92 15.57C18.55 15.6 19.18 15.55 19.8 15.44C20.92 15.24 21.37 15.66 21.53 15.93C21.7 16.2 21.88 16.79 21.21 17.72Z" fill="#FFBB53"/>
</svg>
